<svg id="Слой_1" width="490" height="71" data-name="Слой 1" xmlns="http://www.w3.org/2000/svg" viewBox="217 70 410 102">
    <defs>
        <style>.cls-1{fill:#443d39;}.cls-2{fill:#93c020;}</style>
    </defs>
    <path class="cls-1"
          d="M381.39,143.84V113.78H400v24.39c0,11.12,1.77,17.65,12.89,17.65,12.41,0,16.53-7.92,16.53-19.68V113.78H448v57.27H429.42V159.13c-5.45,7.92-12,12-23.59,12C388.29,171.11,381.39,161.59,381.39,143.84Z"/>
    <path class="cls-1"
          d="M255.3,147.26H197.75c2.35,8.13,10.37,11.23,21.29,11.23,8.34,0,13.79-1.82,17-5l18.29.74c-4.28,10.7-16.47,16.9-35.29,16.9-23.86,0-40.33-8.87-40.33-29.3,0-20.22,16.37-29.31,39.36-29.31,24.07,0,37.23,9.63,37.23,32.94Zm-57.55-11.12h39.36c-1-6.85-7.48-11-19-11C207.8,125.12,200.1,128.22,197.75,136.14Z"/>
    <path class="cls-1"
          d="M297.61,170.25a76.72,76.72,0,0,0,11.87-.94V156.16a64.1,64.1,0,0,1-7.7.52c-8.18,0-10.81-2.55-10.81-10.49V126.93h18.51V114.64H291V101H275.15v8.55c0,3.71-1.91,5.36-6.21,5.36H258v12.07h16v22.15C274.08,164.32,280.68,170.25,297.61,170.25Z"/>
    <path class="cls-1"
          d="M370.34,113.46v16.26a76.15,76.15,0,0,0-11.23-1c-12.94,0-19,6.2-19,21.92v19.15H321.46l.11-56.05h17.22v14c4.39-9.94,12.41-15.29,22.78-15.29A48.25,48.25,0,0,1,370.34,113.46Z"/>
    <path class="cls-1"
          d="M490.34,125.12c-8.34,0-11.23,1.82-11.23,4s2.68,3.74,6.95,4.49l21,3.74c12.94,2.36,21,7.17,21,16.26,0,13-14.65,17.54-34.87,17.54-19.68,0-33.37-4.92-35.19-18.71l17.22-.65c1.29,4.18,7.49,6.74,19.69,6.74,10.05,0,14.54-1.17,14.54-3.85,0-2.14-2.78-3.63-7.7-4.6l-22.25-4.17c-13.15-2.46-18.93-8.56-18.93-16.15,0-12.94,14.33-17.22,30.91-17.22,17.44,0,32.63,4.92,34.66,18.08l-17.33.74C507.14,127.47,500.4,125.12,490.34,125.12Z"/>
    <path class="cls-1"
          d="M609.39,139.77v30.06H590.78V145.44c0-11.12-4.06-17.65-15.19-17.65-12.4,0-18.82,7.92-18.82,19.69v22.35H538.16V91.11h18.61v33.37c5.45-7.92,14.33-12,25.88-12C600.19,112.5,609.39,122,609.39,139.77Z"/>
    <path class="cls-1"
          d="M670.42,169.83,648.28,149H639.4v20.86H620.79V91.11H639.4v43.32h9.31l21.18-20.65h22.78L662.29,140.1l32.52,29.73Z"/>
    <path class="cls-1"
          d="M767.07,139.35v30.48H749.75V158.39c-5.35,7.8-14.87,12.72-28.46,12.72-17.43,0-25.67-7.38-25.67-17.22,0-11.87,12-16.15,32.09-17.32l20.75-1.4c-.1-5.88-4.81-10-15.4-10-8.66,0-14,2.14-15.72,6.31H699.9c1.61-14.55,17.12-19,33.16-18.93C754.56,112.61,767.07,121,767.07,139.35Zm-18.61,7.59v-1.39l-18.29,1.18c-10.16.64-16.15,2.14-16.15,6.2,0,3.42,4.17,5.56,12.3,5.56C740.23,158.49,748.46,152.61,748.46,146.94Z"/>
    <path class="cls-1"
          d="M175.84,119.59c0,17.28-12.91,23.68-30,23.68H114.28V155.9a13.72,13.72,0,0,1-13.72,13.72H94.87V114.36A19.41,19.41,0,0,1,114.28,95h31.58C162.18,95,175.84,102.31,175.84,119.59Zm-19.42,0c0-6-4.59-8.75-11.52-8.75H114.28v17.5H144.9C151.83,128.34,156.42,125.46,156.42,119.59Z"/>
    <path class="cls-2"
          d="M88.3,108.55A26.37,26.37,0,0,1,93.77,97.3v0l.08-.05c.51-.6,1-1.19,1.6-1.76s1.16-1.09,1.76-1.6l.05-.08h0a26.37,26.37,0,0,1,11.25-5.47q-1-9-8.32-16.3a29.93,29.93,0,0,0-6.4,9.16q-8.3-9.09-21.75-9.08,0,13.45,9.08,21.75a29.93,29.93,0,0,0-9.16,6.4Q79.29,107.52,88.3,108.55Z"/>
</svg>